<?xml version="1.0" encoding="UTF-8"?>
<svg version="1.1" xmlns="http://www.w3.org/2000/svg" width="500" height="500">
<path d="M0 0 C165 0 330 0 500 0 C500 165 500 330 500 500 C335 500 170 500 0 500 C0 335 0 170 0 0 Z " fill="#FEFEFE" transform="translate(0,0)"/>
<path d="M0 0 C42.75454534 -5.92102866 42.75454534 -5.92102866 56.85058594 3.43505859 C68.19468947 12.17853258 77.50290704 23.54407322 86 35 C89.04452239 33.67699548 90.72578374 32.41998663 92.67407227 29.74365234 C114.13140051 1.2708772 114.13140051 1.2708772 129.55078125 -1.55419922 C144.27044234 -3.27064608 159.35412651 -1.89737301 174 0 C179.92102866 43.70896836 179.92102866 43.70896836 170.56494141 57.89794922 C161.85128765 69.25418172 150.47543386 78.54655338 139 87 C142.3556526 91.22951148 145.71683863 94.75748975 150.10084534 97.91221619 C161.09359888 105.85941157 173.0520446 115.29825003 175.34716797 129.34814453 C176.88374657 144.15330847 175.65336988 159.2492103 174 174 C128.41924312 179.97504737 128.41924312 179.97504737 113.52548218 168.62472534 C103.80044142 160.24987043 95.58701484 150.31395127 88 140 C85.00268375 141.30707452 83.32957475 142.50931454 81.43359375 145.16455078 C60.98199952 172.76717048 60.98199952 172.76717048 45.3984375 175.50683594 C30.35968814 177.18418862 14.9719907 175.8330505 0 174 C-5.92102866 131.24545466 -5.92102866 131.24545466 3.43505859 117.14941406 C12.17853258 105.80531053 23.54407322 96.49709296 35 88 C31.64662934 83.76948715 28.29418911 80.2518208 23.89915466 77.11331177 C14.02928113 70.02986275 2.38181549 61.13241457 -0.81072998 48.89147949 C-3.38801826 32.85534492 -1.76152253 16.05838039 0 0 Z " fill="#2994CC" transform="translate(168,180)"/>
<path d="M0 0 C42.75454534 -5.92102866 42.75454534 -5.92102866 56.85058594 3.43505859 C68.19468947 12.17853258 77.50290704 23.54407322 86 35 C89.04452239 33.67699548 90.72578374 32.41998663 92.67407227 29.74365234 C114.13140051 1.2708772 114.13140051 1.2708772 129.55078125 -1.55419922 C144.27044234 -3.27064608 159.35412651 -1.89737301 174 0 C179.92102866 43.70896836 179.92102866 43.70896836 170.56494141 57.89794922 C161.85128765 69.25418172 150.47543386 78.54655338 139 87 C135.67240077 85.44805246 133.51419515 83.69378051 131 81 C133 77 133 77 144 66 C132.45 65.67 120.9 65.34 109 65 C108.67 53.78 108.34 42.56 108 31 C101.4 37.6 94.8 44.2 88 51 C84.31246157 49.15623078 82.49931076 47.7350152 79.671875 44.8671875 C78.9509668 44.14128418 78.23005859 43.41538086 77.48730469 42.66748047 C76.58399414 41.74596191 75.68068359 40.82444336 74.75 39.875 C71.8625 36.94625 68.975 34.0175 66 31 C65.67 42.55 65.34 54.1 65 66 C53.78 66.33 42.56 66.66 31 67 C37.27 73.27 43.54 79.54 50 86 C53.33925388 84.33037306 54.88982537 83.35708077 57.39160156 80.83544922 C58.0319635 80.19493622 58.67232544 79.55442322 59.33209229 78.89450073 C60.01140808 78.20486237 60.69072388 77.515224 61.390625 76.8046875 C62.09523865 76.09724396 62.79985229 75.38980042 63.52581787 74.66091919 C65.7719539 72.40360138 68.01103009 70.13942367 70.25 67.875 C71.77297717 66.34199047 73.29640939 64.80943285 74.8203125 63.27734375 C78.55216815 59.52345427 82.27825351 55.76391086 86 52 C88.99943905 53.34572887 91.08076179 54.83537101 93.39160156 57.16455078 C94.0319635 57.80506378 94.67232544 58.44557678 95.33209229 59.10549927 C96.01140808 59.79513763 96.69072388 60.484776 97.390625 61.1953125 C98.09523865 61.90275604 98.79985229 62.61019958 99.52581787 63.33908081 C101.7719539 65.59639862 104.01103009 67.86057633 106.25 70.125 C107.77297717 71.65800953 109.29640939 73.19056715 110.8203125 74.72265625 C114.55216815 78.47654573 118.27825351 82.23608914 122 86 C120.63886987 89.04581486 119.10669904 91.13839026 116.74365234 93.48339844 C115.75285172 94.47397247 115.75285172 94.47397247 114.74203491 95.48455811 C114.03052277 96.18574768 113.31901062 96.88693726 112.5859375 97.609375 C111.85629791 98.33618469 111.12665833 99.06299438 110.37490845 99.81182861 C108.0462612 102.12929198 105.71075174 104.4396995 103.375 106.75 C101.79381347 108.32115444 100.21307875 109.89276371 98.6328125 111.46484375 C94.7604331 115.31518653 90.88239829 119.15976117 87 123 C82.16701194 118.97251947 77.61889996 114.75620587 73.19140625 110.2890625 C72.57982162 109.67606293 71.968237 109.06306335 71.33811951 108.43148804 C69.41052441 106.49835436 67.48646072 104.56175013 65.5625 102.625 C64.24567596 101.30315301 62.92862074 99.98153628 61.61132812 98.66015625 C58.40487627 95.44275701 55.20158371 92.22224319 52 89 C48.56404834 90.52708963 45.88087546 92.59927045 43 95 C35.59678762 89.18366478 28.45031182 83.09862541 21.5 76.75 C20.98927822 76.28379116 20.47855644 75.81758232 19.95235825 75.33724594 C6.83584307 63.23610464 -2.20282197 52.64768684 -3.0116272 33.95791626 C-3.04917955 22.57489508 -1.92560788 11.2119466 0 0 Z " fill="#B40808" transform="translate(168,180)"/>
<path d="M0 0 C1.46095093 1.27194214 1.46095093 1.27194214 2.95141602 2.56958008 C5.64311863 4.88068988 8.3844434 7.0986541 11.19116211 9.26831055 C43.7874949 34.70795512 43.7874949 34.70795512 46.17350769 53.24095154 C47.15579725 66.84574098 45.98780368 80.52978849 44 94 C-1.58075688 99.97504737 -1.58075688 99.97504737 -16.47451782 88.62472534 C-26.19955858 80.24987043 -34.41298516 70.31395127 -42 60 C-44.95816313 61.3271219 -46.98081009 62.75314427 -49.22045898 65.08862305 C-49.82466171 65.71234299 -50.42886444 66.33606293 -51.05137634 66.97868347 C-51.69313309 67.64958511 -52.33488983 68.32048676 -52.99609375 69.01171875 C-54.37245849 70.42310007 -55.7494301 71.83388978 -57.12695312 73.24414062 C-59.29071322 75.46996874 -61.44949774 77.70001296 -63.59790039 79.94067383 C-65.67559969 82.10281894 -67.77155405 84.24580508 -69.87109375 86.38671875 C-70.51082626 87.06369308 -71.15055878 87.74066742 -71.80967712 88.43815613 C-76.30992581 92.98959445 -76.30992581 92.98959445 -79.80102539 93.04223633 C-82.45578247 91.7839752 -84.08016638 90.20425342 -86 88 C-84.54483465 84.66751189 -82.70905435 82.44166293 -80.16455078 79.8581543 C-79.37678253 79.05439865 -78.58901428 78.25064301 -77.77737427 77.42253113 C-76.92529388 76.56508804 -76.0732135 75.70764496 -75.1953125 74.82421875 C-74.31978729 73.93966507 -73.44426208 73.05511139 -72.54220581 72.14375305 C-70.69055028 70.27759652 -68.83607541 68.4142338 -66.97900391 66.5534668 C-64.5973872 64.16644613 -62.23237655 61.76365838 -59.87095833 59.35667706 C-57.61512946 57.06402045 -55.34160237 54.78904353 -53.0703125 52.51171875 C-51.79826462 51.21037239 -51.79826462 51.21037239 -50.5005188 49.88273621 C-49.30940994 48.70074394 -49.30940994 48.70074394 -48.09423828 47.49487305 C-47.39855743 46.79412155 -46.70287659 46.09337006 -45.9861145 45.37138367 C-44 44 -44 44 -41.89205933 44.15412903 C-39.04603145 45.42648467 -37.28629997 47.39636981 -35.125 49.625 C-33.81402344 50.97271484 -33.81402344 50.97271484 -32.4765625 52.34765625 C-30.42480935 54.54503857 -28.43856991 56.76581988 -26.5 59.0625 C-24.33347554 61.99630143 -24.33347554 61.99630143 -22 63 C-22 50.79 -22 38.58 -22 26 C-11.44 25.67 -0.88 25.34 10 25 C4.39 19.39 -1.22 13.78 -7 8 C-1 1 -1 1 0 0 Z " fill="#2A94CC" transform="translate(298,260)"/>
<path d="M0 0 C16.83 0 33.66 0 51 0 C55.38274011 47.7092566 55.38274011 47.7092566 45.46662903 60.63261414 C36.82780425 70.62438908 26.61539299 79.1801076 16 87 C12.67240077 85.44805246 10.51419515 83.69378051 8 81 C10 77 10 77 21 66 C9.45 65.67 -2.1 65.34 -14 65 C-16.57342985 30.51604007 -16.57342985 30.51604007 -9.546875 22.15625 C-4.82993172 17.19365036 0.36450553 12.88189646 6 9 C4.38304525 5.36185181 2.64561113 3.30701392 0 0 Z " fill="#B40909" transform="translate(291,180)"/>
<path d="M0 0 C7.875 6.75 7.875 6.75 10.74609375 9.6484375 C11.35517578 10.26074219 11.96425781 10.87304688 12.59179688 11.50390625 C13.20087891 12.12136719 13.80996094 12.73882812 14.4375 13.375 C15.07365234 14.01566406 15.70980469 14.65632812 16.36523438 15.31640625 C17.91250332 16.87530879 19.45736492 18.43651416 21 20 C24.46520777 18.51581824 26.66833685 16.5526273 29.29296875 13.8671875 C30.08767578 13.06152344 30.88238281 12.25585938 31.70117188 11.42578125 C32.52166016 10.58402344 33.34214844 9.74226562 34.1875 8.875 C35.8246563 7.20360418 37.463863 5.53421339 39.10546875 3.8671875 C40.19057739 2.75512939 40.19057739 2.75512939 41.29760742 1.62060547 C43 0 43 0 44 0 C44 11.55 44 23.1 44 35 C55.88 35 67.76 35 80 35 C73.25 42.875 73.25 42.875 70.1328125 45.96484375 C69.47539062 46.61904297 68.81796875 47.27324219 68.140625 47.94726562 C67.47546875 48.60404297 66.8103125 49.26082031 66.125 49.9375 C65.43664062 50.62134766 64.74828125 51.30519531 64.0390625 52.00976562 C62.36166489 53.67551464 60.68196209 55.3388622 59 57 C62.76618779 61.51111147 66.66359902 65.77803926 70.875 69.875 C72.60814386 71.56324376 74.31287006 73.26483789 76 75 C76 75.33 76 75.66 76 76 C65.11 76 54.22 76 43 76 C43 88.21 43 100.42 43 113 C39.47468244 111.23734122 38.15624161 110.35397226 35.6875 107.55859375 C35.08679688 106.89279297 34.48609375 106.22699219 33.8671875 105.54101562 C32.62045531 104.13648574 31.37566731 102.73022772 30.1328125 101.32226562 C29.53210938 100.65775391 28.93140625 99.99324219 28.3125 99.30859375 C27.77238281 98.69814209 27.23226562 98.08769043 26.67578125 97.45874023 C24.67185369 95.71435399 23.67725041 95.03317224 21 95 C18.58447492 96.73629014 18.58447492 96.73629014 16.26953125 99.27734375 C15.38458984 100.18291016 14.49964844 101.08847656 13.58789062 102.02148438 C12.66224291 102.99299677 11.73711899 103.96500848 10.8125 104.9375 C8.98985166 106.82570443 7.16080539 108.70755756 5.33203125 110.58984375 C4.52483643 111.43409912 3.7176416 112.27835449 2.88598633 113.14819336 C1 115 1 115 0 115 C0 102.46 0 89.92 0 77 C-10.89 77 -21.78 77 -33 77 C-26.25 69.125 -26.25 69.125 -23.7890625 66.69140625 C-23.26699219 66.17255859 -22.74492187 65.65371094 -22.20703125 65.11914062 C-21.68496094 64.60544922 -21.16289062 64.09175781 -20.625 63.5625 C-20.07972656 63.02173828 -19.53445312 62.48097656 -18.97265625 61.92382812 C-17.65076536 60.61353277 -16.32572382 59.30641716 -15 58 C-12.00056095 59.34572887 -9.91923821 60.83537101 -7.60839844 63.16455078 C-6.64785553 64.12532028 -6.64785553 64.12532028 -5.66790771 65.10549927 C-4.98859192 65.79513763 -4.30927612 66.484776 -3.609375 67.1953125 C-2.90476135 67.90275604 -2.20014771 68.61019958 -1.47418213 69.33908081 C0.7719539 71.59639862 3.01103009 73.86057633 5.25 76.125 C6.77297717 77.65800953 8.29640939 79.19056715 9.8203125 80.72265625 C13.55216815 84.47654573 17.27825351 88.23608914 21 92 C25.83298806 87.97251947 30.38110004 83.75620587 34.80859375 79.2890625 C35.42017838 78.67606293 36.031763 78.06306335 36.66188049 77.43148804 C38.58947559 75.49835436 40.51353928 73.56175013 42.4375 71.625 C43.75432404 70.30315301 45.07137926 68.98153628 46.38867188 67.66015625 C49.59512373 64.44275701 52.79841629 61.22224319 56 58 C54.67005617 55.04734888 53.22220684 52.97649784 50.92724609 50.70019531 C50.30675385 50.07985413 49.6862616 49.45951294 49.04696655 48.82037354 C48.37920197 48.16293152 47.71143738 47.5054895 47.0234375 46.828125 C45.99556625 45.8044986 45.99556625 45.8044986 44.94692993 44.76019287 C42.76094155 42.58538402 40.56809571 40.41763928 38.375 38.25 C36.89016745 36.7752001 35.40578694 35.29994494 33.921875 33.82421875 C30.2864709 30.21084552 26.64490176 26.60379147 23 23 C20.00056095 24.34572887 17.91923821 25.83537101 15.60839844 28.16455078 C14.9680365 28.80506378 14.32767456 29.44557678 13.66790771 30.10549927 C12.98859192 30.79513763 12.30927612 31.484776 11.609375 32.1953125 C10.55245453 33.25647781 10.55245453 33.25647781 9.47418213 34.33908081 C7.2280461 36.59639862 4.98896991 38.86057633 2.75 41.125 C1.22702283 42.65800953 -0.29640939 44.19056715 -1.8203125 45.72265625 C-5.55216815 49.47654573 -9.27825351 53.23608914 -13 57 C-16.41025679 55.38731094 -18.65632857 53.58911398 -21.328125 50.90234375 C-22.12734375 50.10119141 -22.9265625 49.30003906 -23.75 48.47460938 C-24.575 47.63736328 -25.4 46.80011719 -26.25 45.9375 C-27.09046875 45.09638672 -27.9309375 44.25527344 -28.796875 43.38867188 C-35 37.14023184 -35 37.14023184 -35 36 C-23.45 36 -11.9 36 0 36 C0 24.12 0 12.24 0 0 Z " fill="#FAF9FA" transform="translate(233,210)"/>
<path d="M0 0 C2.99943905 1.34572887 5.08076179 2.83537101 7.39160156 5.16455078 C8.0319635 5.80506378 8.67232544 6.44557678 9.33209229 7.10549927 C10.01140808 7.79513763 10.69072388 8.484776 11.390625 9.1953125 C12.09523865 9.90275604 12.79985229 10.61019958 13.52581787 11.33908081 C15.7719539 13.59639862 18.01103009 15.86057633 20.25 18.125 C21.77297717 19.65800953 23.29640939 21.19056715 24.8203125 22.72265625 C28.55216815 26.47654573 32.27825351 30.23608914 36 34 C34.63886987 37.04581486 33.10669904 39.13839026 30.74365234 41.48339844 C30.08311859 42.14378113 29.42258484 42.80416382 28.74203491 43.48455811 C28.03052277 44.18574768 27.31901062 44.88693726 26.5859375 45.609375 C25.85629791 46.33618469 25.12665833 47.06299438 24.37490845 47.81182861 C22.0462612 50.12929198 19.71075174 52.4396995 17.375 54.75 C15.79381347 56.32115444 14.21307875 57.89276371 12.6328125 59.46484375 C8.7604331 63.31518653 4.88239829 67.15976117 1 71 C-3.90473901 66.88670129 -8.5219528 62.61457539 -13.02734375 58.0703125 C-13.66112442 57.43511688 -14.29490509 56.79992126 -14.94789124 56.14547729 C-16.94681406 54.14101284 -18.94220784 52.13307786 -20.9375 50.125 C-22.30250133 48.75497611 -23.6677336 47.38518226 -25.03320312 46.015625 C-28.35814211 42.67973457 -31.67992353 39.34072964 -35 36 C-30.88670129 31.09526099 -26.61457539 26.4780472 -22.0703125 21.97265625 C-21.43511688 21.33887558 -20.79992126 20.70509491 -20.14547729 20.05210876 C-18.14101284 18.05318594 -16.13307786 16.05779216 -14.125 14.0625 C-12.75497611 12.69749867 -11.38518226 11.3322664 -10.015625 9.96679688 C-6.67973457 6.64185789 -3.34072964 3.32007647 0 0 Z " fill="#1D307E" transform="translate(254,232)"/>
<path d="M0 0 C4.80105444 -0.24945527 9.59825245 -0.42964399 14.40429688 -0.54931641 C16.0341976 -0.5992442 17.66365869 -0.66722112 19.29199219 -0.75439453 C27.42117367 -1.1783089 34.49648662 -1.5421318 41.09375 3.875 C47.13779164 11.19147146 46.09034113 19.6711342 45.625 28.625 C45.57475163 30.31366944 45.52913965 32.00248353 45.48828125 33.69140625 C45.37894446 37.79789043 45.20694857 41.89732419 45 46 C39.87734311 46.19890842 34.75696787 46.34344975 29.63134766 46.43945312 C27.89104021 46.47949731 26.15099876 46.53395364 24.41162109 46.60351562 C8.14484788 47.23740707 8.14484788 47.23740707 2.84375 43.1875 C-2.37849072 36.40701003 -0.81386438 26.56868326 -0.5 18.5 C-0.4598267 16.7058085 -0.42333268 14.91153062 -0.390625 13.1171875 C-0.30291535 8.74264302 -0.16513544 4.37227844 0 0 Z " fill="#FBFDFE" transform="translate(286,297)"/>
<path d="M0 0 C4.98023509 -0.19896452 9.95812045 -0.34347304 14.94140625 -0.43945312 C16.63322273 -0.47948848 18.3247658 -0.53393834 20.015625 -0.60351562 C35.82605581 -1.23742441 35.82605581 -1.23742441 41.125 2.84375 C46.31041011 9.52255822 44.81877728 19.02906423 44.5 27 C44.45982455 28.74601218 44.4233309 30.49211318 44.390625 32.23828125 C44.30293595 36.49439818 44.1651709 40.74621406 44 45 C39.01976491 45.19896452 34.04187955 45.34347304 29.05859375 45.43945312 C27.36677727 45.47948848 25.6752342 45.53393834 23.984375 45.60351562 C8.17394419 46.23742441 8.17394419 46.23742441 2.875 42.15625 C-2.31041011 35.47744178 -0.81877728 25.97093577 -0.5 18 C-0.45982455 16.25398782 -0.4233309 14.50788682 -0.390625 12.76171875 C-0.30293595 8.50560182 -0.1651709 4.25378594 0 0 Z " fill="#FDFAFA" transform="translate(179,191)"/>
<path d="M0 0 C1.64507224 0.04521477 3.29026444 0.08626709 4.93554688 0.12304688 C8.93919406 0.22153204 12.93700745 0.37639359 16.9375 0.5625 C17.11128484 5.84594104 17.23790897 11.12769941 17.32202148 16.41333008 C17.35710141 18.20887244 17.40478082 20.00421659 17.46557617 21.79907227 C18.0202678 38.60296563 18.0202678 38.60296563 14.59375 43.25 C8.25964066 47.87552971 -1.58900753 46.25804582 -9 46 C-10.75058893 45.96485542 -12.50124545 45.93292192 -14.25195312 45.90429688 C-18.5238136 45.82748296 -22.79241077 45.70687769 -27.0625 45.5625 C-27.28662857 40.60063826 -27.44902741 35.641778 -27.55688477 30.67602539 C-27.60187863 28.99093257 -27.6631011 27.30618586 -27.74145508 25.62231445 C-28.45485843 9.88547572 -28.45485843 9.88547572 -23.65625 3.9375 C-16.80682029 -1.55055238 -8.28415494 -0.39702019 0 0 Z " fill="#FBFDFE" transform="translate(206.0625,297.4375)"/>
<path d="M0 0 C1.69783273 0.04017772 3.39575687 0.07667097 5.09375 0.109375 C9.23144306 0.19704236 13.3647067 0.3347916 17.5 0.5 C17.67382512 5.64102104 17.80042611 10.78031104 17.88452148 15.92358398 C17.91959498 17.67063206 17.96726971 19.41747655 18.02807617 21.16381836 C18.58271294 37.50929004 18.58271294 37.50929004 15.15625 42.15625 C8.82979285 46.82109995 -1.01577784 45.19591942 -8.4375 44.9375 C-10.18808893 44.90235542 -11.93874545 44.87042192 -13.68945312 44.84179688 C-17.9613136 44.76498296 -22.22991077 44.64437769 -26.5 44.5 C-26.69896452 39.51976491 -26.84347304 34.54187955 -26.93945312 29.55859375 C-26.97948848 27.86677727 -27.03393834 26.1752342 -27.10351562 24.484375 C-27.73750606 8.6719078 -27.73750606 8.6719078 -23.625 3.375 C-17.04367956 -1.73472084 -7.85852612 -0.32337103 0 0 Z " fill="#FDF9F9" transform="translate(313.5,190.5)"/>
<path d="M0 0 C4.01936862 3.37798762 7.90055933 6.79265684 11.5625 10.5625 C14.89598364 13.9416478 18.28585499 17.04773089 22 20 C20.02 22.31 18.04 24.62 16 27 C13.69 25.35 11.38 23.7 9 22 C9 28.93 9 35.86 9 43 C10.32 41.68 11.64 40.36 13 39 C15.88437779 40.29299694 17.87219421 41.65941363 20 44 C18.51346494 47.46629835 16.54277649 49.69022036 13.8671875 52.328125 C13.06152344 53.12734375 12.25585938 53.9265625 11.42578125 54.75 C10.58402344 55.575 9.74226563 56.4 8.875 57.25 C8.02550781 58.09046875 7.17601562 58.9309375 6.30078125 59.796875 C4.20495077 61.86915683 2.10459287 63.93662393 0 66 C-3.7975379 64.24193584 -5.85222667 62.1688838 -8.625 59 C-16.36803016 50.29823013 -24.72265924 42.18845472 -33 34 C-29.84505012 27.32082968 -23.87324069 22.54453419 -18.3125 17.8125 C-11.84218075 12.27780736 -5.97829158 6.05385987 0 0 Z " fill="#B40606" transform="translate(161,234)"/>
<path d="M0 0 C4.0112646 2.0056323 5.941606 3.79581904 9 7 C9.95152767 7.95683085 10.90581093 8.91092771 11.86254883 9.86254883 C19.24169922 17.24169922 26.62084961 24.62084961 34 32 C30.10023279 36.66874537 26.04785356 41.09127809 21.7265625 45.37109375 C21.15795502 45.93828629 20.58934753 46.50547882 20.00350952 47.08985901 C18.21303764 48.87479913 16.41909516 50.65620256 14.625 52.4375 C13.39950677 53.65796939 12.17424428 54.87867053 10.94921875 56.09960938 C7.96880226 59.06908756 4.98527106 62.03540257 2 65 C-1.46629835 63.51346494 -3.69022036 61.54277649 -6.328125 58.8671875 C-7.12734375 58.06152344 -7.9265625 57.25585938 -8.75 56.42578125 C-9.9875 55.16314453 -9.9875 55.16314453 -11.25 53.875 C-12.09046875 53.02550781 -12.9309375 52.17601562 -13.796875 51.30078125 C-15.86915683 49.20495077 -17.93662393 47.10459287 -20 45 C-18.35 42.69 -16.7 40.38 -15 38 C-10.01411159 39.99666365 -6.99253873 44.1056933 -3.4375 47.98046875 C-1.27800695 50.25193076 -1.27800695 50.25193076 0.9206543 49.82861328 C4.99178143 48.20628083 7.76588162 44.74556108 10.8125 41.6875 C11.51826172 41.01009766 12.22402344 40.33269531 12.95117188 39.63476562 C13.61310547 38.97541016 14.27503906 38.31605469 14.95703125 37.63671875 C15.56522705 37.03561279 16.17342285 36.43450684 16.80004883 35.81518555 C18.19804334 34.08621352 18.19804334 34.08621352 17.91503906 32.01586914 C16.77797067 29.51086015 15.3708584 28.0313893 13.40234375 26.109375 C12.68369141 25.40039062 11.96503906 24.69140625 11.22460938 23.9609375 C10.46986328 23.23132813 9.71511719 22.50171875 8.9375 21.75 C8.17888672 21.00492187 7.42027344 20.25984375 6.63867188 19.4921875 C4.76567793 17.65453306 2.88604389 15.82424276 1 14 C-0.65 15.32 -2.3 16.64 -4 18 C-2.46356148 21.68069887 -0.21849055 23.98775204 2.625 26.75 C3.85089844 27.94882812 3.85089844 27.94882812 5.1015625 29.171875 C5.72804688 29.77515625 6.35453125 30.3784375 7 31 C5.46781315 34.63061667 3.2816856 36.9863773 0.5 39.75 C-0.2940625 40.54921875 -1.088125 41.3484375 -1.90625 42.171875 C-4 44 -4 44 -6 44 C-6.33 36.41 -6.66 28.82 -7 21 C-9.31 22.98 -11.62 24.96 -14 27 C-15.98 24.69 -17.96 22.38 -20 20 C-13.4 13.4 -6.8 6.8 0 0 Z " fill="#2A94CC" transform="translate(348,235)"/>
<path d="M0 0 C2.822663 1.26009544 4.55877939 3.19507662 6.70236206 5.40617371 C7.91859253 6.6456073 7.91859253 6.6456073 9.15939331 7.91007996 C11.16723199 10.027679 13.07183092 12.21574064 14.96798706 14.43351746 C19.96499144 20.18173658 25.42298351 25.48347718 30.82736206 30.84367371 C31.9037686 31.91505258 32.9799422 32.98666553 34.05587769 34.05851746 C36.66452951 36.65627008 39.27630677 39.25085333 41.88986206 41.84367371 C39.31406915 47.1377502 39.31406915 47.1377502 36.88986206 48.84367371 C33.0433322 48.46473905 31.07452929 47.52530774 28.38473511 44.79264832 C27.7444487 44.15205978 27.10416229 43.51147125 26.44447327 42.85147095 C25.77031876 42.1566713 25.09616425 41.46187164 24.40158081 40.74601746 C23.69838211 40.03715897 22.99518341 39.32830048 22.27067566 38.59796143 C20.0300011 36.33492201 17.80364434 34.05836439 15.57736206 31.78117371 C14.05940535 30.24315233 12.54053548 28.70603164 11.02072144 27.16984558 C7.29978124 23.40483653 3.59049709 19.62863681 -0.11013794 15.84367371 C-3.06830106 17.17079561 -5.09094803 18.59681797 -7.33059692 20.93229675 C-7.93479965 21.55601669 -8.53900238 22.17973663 -9.16151428 22.82235718 C-9.80327103 23.49325882 -10.44502777 24.16416046 -11.10623169 24.85539246 C-12.48259643 26.26677378 -13.85956804 27.67756348 -15.23709106 29.08781433 C-17.40085116 31.31364245 -19.55963568 33.54368666 -21.70803833 35.78434753 C-23.78573762 37.94649265 -25.88169199 40.08947879 -27.98123169 42.23039246 C-28.94083046 43.24585396 -28.94083046 43.24585396 -29.91981506 44.28182983 C-34.42006375 48.83326816 -34.42006375 48.83326816 -37.91116333 48.88591003 C-40.56592041 47.62764891 -42.19030432 46.04792713 -44.11013794 43.84367371 C-42.65497259 40.5111856 -40.81919229 38.28533664 -38.27468872 35.701828 C-37.48692047 34.89807236 -36.69915222 34.09431671 -35.88751221 33.26620483 C-35.03543182 32.40876175 -34.18335144 31.55131866 -33.30545044 30.66789246 C-32.42992523 29.78333878 -31.55440002 28.8987851 -30.65234375 27.98742676 C-28.80068822 26.12127022 -26.94621335 24.25790751 -25.08914185 22.3971405 C-22.70752514 20.01011983 -20.34251449 17.60733209 -17.98109627 15.20035076 C-15.7252674 12.90769416 -13.45174031 10.63271723 -11.18045044 8.35539246 C-9.90840256 7.0540461 -9.90840256 7.0540461 -8.61065674 5.72640991 C-7.81658417 4.93841507 -7.0225116 4.15042023 -6.20437622 3.33854675 C-5.50869537 2.63779526 -4.81301453 1.93704376 -4.09625244 1.21505737 C-2.11013794 -0.15632629 -2.11013794 -0.15632629 0 0 Z " fill="#0398B3" transform="translate(256.1101379394531,304.1563262939453)"/>
<path d="M0 0 C2.99943905 1.34572887 5.08076179 2.83537101 7.39160156 5.16455078 C8.35214447 6.12532028 8.35214447 6.12532028 9.33209229 7.10549927 C10.01140808 7.79513763 10.69072388 8.484776 11.390625 9.1953125 C12.09523865 9.90275604 12.79985229 10.61019958 13.52581787 11.33908081 C15.7719539 13.59639862 18.01103009 15.86057633 20.25 18.125 C21.77297717 19.65800953 23.29640939 21.19056715 24.8203125 22.72265625 C28.55216815 26.47654573 32.27825351 30.23608914 36 34 C38.99943905 32.65427113 41.08076179 31.16462899 43.39160156 28.83544922 C44.0319635 28.19493622 44.67232544 27.55442322 45.33209229 26.89450073 C46.01140808 26.20486237 46.69072388 25.515224 47.390625 24.8046875 C48.44754547 23.74352219 48.44754547 23.74352219 49.52581787 22.66091919 C51.7719539 20.40360138 54.01103009 18.13942367 56.25 15.875 C57.77297717 14.34199047 59.29640939 12.80943285 60.8203125 11.27734375 C64.55216815 7.52345427 68.27825351 3.76391086 72 0 C75.32759923 1.55194754 77.48580485 3.30621949 80 6 C78.54131246 9.35999018 76.69131052 11.55203106 74.10107422 14.12597656 C73.3003952 14.92650452 72.49971619 15.72703247 71.67477417 16.55181885 C70.81014557 17.40612488 69.94551697 18.26043091 69.0546875 19.140625 C68.1696756 20.02280701 67.2846637 20.90498901 66.37283325 21.81390381 C64.02549869 24.15194543 61.67393215 26.48555874 59.32019043 28.81713867 C56.91686073 31.19996526 54.51922233 33.58850348 52.12109375 35.9765625 C47.41928533 40.65631862 42.71181336 45.33031867 38 50 C34.64000982 48.54131246 32.44796894 46.69131052 29.87402344 44.10107422 C29.07349548 43.3003952 28.27296753 42.49971619 27.44818115 41.67477417 C26.59387512 40.81014557 25.73956909 39.94551697 24.859375 39.0546875 C23.97719299 38.1696756 23.09501099 37.2846637 22.18609619 36.37283325 C19.84805457 34.02549869 17.51444126 31.67393215 15.18286133 29.32019043 C12.80003474 26.91686073 10.41149652 24.51922233 8.0234375 22.12109375 C3.34368138 17.41928533 -1.33031867 12.71181336 -6 8 C-4.44805246 4.67240077 -2.69378051 2.51419515 0 0 Z " fill="#930404" transform="translate(218,181)"/>
<path d="M0 0 C2.32836914 1.6640625 2.32836914 1.6640625 4.66015625 3.875 C5.9601355 5.09944824 5.9601355 5.09944824 7.28637695 6.34863281 C11.81664566 10.77496823 16.30367351 15.23932726 20.75 19.75 C28.56060403 27.72001914 28.56060403 27.72001914 37 35 C36.43040847 38.62613199 35.07625466 40.25517741 32.4375 42.75 C31.47650391 43.67039062 31.47650391 43.67039062 30.49609375 44.609375 C30.00238281 45.06828125 29.50867188 45.5271875 29 46 C25.33247995 44.4608199 23.01419427 42.24514548 20.234375 39.4296875 C19.34492188 38.53378906 18.45546875 37.63789063 17.5390625 36.71484375 C16.61867187 35.77769531 15.69828125 34.84054688 14.75 33.875 C13.80515144 32.92011363 12.85984367 31.96568141 11.9140625 31.01171875 C9.60481662 28.67890913 7.30036797 26.34155914 5 24 C3.8387561 24.72908569 3.8387561 24.72908569 2.65405273 25.47290039 C-1.50234275 27.86442405 -5.33200461 27.6657878 -10 27 C-13.79853672 25.2043281 -15.52011124 23.70383685 -17.875 20.25 C-19.23767339 16.31338799 -19.73932875 13.11559668 -19 9 C-14.91390487 0.9791466 -8.75572911 -1.98638808 0 0 Z " fill="#B40606" transform="translate(113,114)"/>
<path d="M0 0 C2.90543872 1.31376917 4.96661059 2.72056492 7.20800781 4.98095703 C7.80832825 5.58142853 8.40864868 6.18190002 9.02716064 6.80056763 C9.66272888 7.44645844 10.29829712 8.09234924 10.953125 8.7578125 C11.61334656 9.42086395 12.27356812 10.08391541 12.95379639 10.76705933 C15.05727824 12.88171832 17.15369142 15.00323212 19.25 17.125 C20.67662261 18.56165557 22.10370072 19.99785898 23.53125 21.43359375 C27.02613661 24.95050804 30.51470062 28.47358547 34 32 C32.44805246 35.32759923 30.69378051 37.48580485 28 40 C24.13671373 38.4152642 21.71123077 35.94043113 18.796875 32.9921875 C18.3142218 32.50670441 17.8315686 32.02122131 17.33428955 31.52102661 C15.80141438 29.97700134 14.27565996 28.42615176 12.75 26.875 C11.70879639 25.82375991 10.66713459 24.77297343 9.625 23.72265625 C7.07800536 21.15366996 4.53734823 18.57851839 2 16 C-1.85983838 17.57917784 -4.24376113 20.0432715 -7.1328125 23.0078125 C-7.61072235 23.49329559 -8.0886322 23.97877869 -8.58102417 24.47897339 C-10.10060969 26.02290756 -11.61353698 27.57311581 -13.125 29.125 C-15.12191594 31.17494816 -17.12524343 33.21830242 -19.1328125 35.2578125 C-20.01855957 36.1667627 -20.90430664 37.07571289 -21.81689453 38.01220703 C-24 40 -24 40 -26 40 C-27.7143618 38.04072937 -29.38405168 36.04119788 -31 34 C-29.72370463 31.19923613 -28.40867105 29.16415401 -26.21850586 27.00732422 C-25.66130356 26.45350067 -25.10410126 25.89967712 -24.53001404 25.32907104 C-23.93100784 24.74352448 -23.33200165 24.15797791 -22.71484375 23.5546875 C-22.09855606 22.94360138 -21.48226837 22.33251526 -20.8473053 21.70291138 C-18.88206676 19.75545618 -16.91026236 17.81483091 -14.9375 15.875 C-12.96205725 13.92716399 -10.98808649 11.97789254 -9.01698303 10.02566528 C-7.79106939 8.81202071 -6.56249271 7.60105915 -5.33103943 6.39303589 C-2.28867973 3.4854956 -2.28867973 3.4854956 0 0 Z " fill="#B50B0B" transform="translate(254,144)"/>
<path d="M0 0 C15.51 0 31.02 0 47 0 C47.185625 6.249375 47.37125 12.49875 47.5625 18.9375 C47.64443604 20.89163818 47.72637207 22.84577637 47.81079102 24.85913086 C48.10799694 37.20021213 48.10799694 37.20021213 44.99169922 42.26220703 C42.77054173 44.50800981 40.68424139 46.34296204 38 48 C37.67 48 37.34 48 37 48 C37 35.79 37 23.58 37 11 C24.79 11 12.58 11 0 11 C0 7.37 0 3.74 0 0 Z " fill="#2D96CD" transform="translate(186,287)"/>
<path d="M0 0 C5.99500997 4.96194855 11.46427037 10.3476624 16.9375 15.875 C17.81212891 16.75414062 18.68675781 17.63328125 19.58789062 18.5390625 C21.72757048 20.6904346 23.86486597 22.84411792 26 25 C31.99500997 20.03805145 37.46427037 14.6523376 42.9375 9.125 C43.81212891 8.24585938 44.68675781 7.36671875 45.58789062 6.4609375 C47.72757048 4.3095654 49.86486597 2.15588208 52 0 C54.31 1.98 56.62 3.96 59 6 C57.36527003 9.26945994 56.47154305 10.77611698 54.01904297 13.20800781 C53.41857147 13.80832825 52.81809998 14.40864868 52.19943237 15.02716064 C51.23059616 15.980513 51.23059616 15.980513 50.2421875 16.953125 C49.57913605 17.61334656 48.91608459 18.27356812 48.23294067 18.95379639 C46.11828168 21.05727824 43.99676788 23.15369142 41.875 25.25 C40.43834443 26.67662261 39.00214102 28.10370072 37.56640625 29.53125 C34.04949196 33.02613661 30.52641453 36.51470062 27 40 C22.33125463 36.10023279 17.90872191 32.04785356 13.62890625 27.7265625 C13.06171371 27.15795502 12.49452118 26.58934753 11.91014099 26.00350952 C10.12520087 24.21303764 8.34379744 22.41909516 6.5625 20.625 C5.34203061 19.39950677 4.12132947 18.17424428 2.90039062 16.94921875 C-0.06908756 13.96880226 -3.03540257 10.98527106 -6 8 C-4.44805246 4.67240077 -2.69378051 2.51419515 0 0 Z " fill="#2A94CC" transform="translate(228,349)"/>
<path d="M0 0 C2.5625 0.5 2.5625 0.5 4.875 2.5625 C6.97362491 6.21566188 7.09136081 8.34466504 6.5625 12.5 C5.4375 14.9375 5.4375 14.9375 3.5625 16.5 C0.10679807 16.85996895 -2.13774471 16.59991843 -5.4375 15.5 C-5.90690506 15.97162567 -6.37631012 16.44325134 -6.85993958 16.9291687 C-11.73962772 21.83095558 -16.62281269 26.72923856 -21.50805664 31.62548828 C-23.3315506 33.45401548 -25.15414663 35.28343859 -26.97583008 37.11376953 C-29.59221434 39.74226338 -32.21179542 42.3675338 -34.83203125 44.9921875 C-35.64775101 45.81306854 -36.46347076 46.63394958 -37.3039093 47.47970581 C-38.06447128 48.24034332 -38.82503326 49.00098083 -39.60864258 49.78466797 C-40.27704666 50.45529266 -40.94545074 51.12591736 -41.6341095 51.81686401 C-43.4375 53.5 -43.4375 53.5 -46.4375 55.5 C-49.40951597 55.3513992 -50.95075693 54.90282185 -53.25 53 C-55.00890928 49.29703311 -55.0375365 45.53660916 -54.4375 41.5 C-53.7775 40.84 -53.1175 40.18 -52.4375 39.5 C-50.30215454 39.51905823 -50.30215454 39.51905823 -47.75244141 39.75610352 C-43.83292719 39.82437563 -41.75618717 39.53269391 -38.76708984 36.94897461 C-37.61829784 35.79192369 -36.49621452 34.60790399 -35.3984375 33.40234375 C-34.78787506 32.77526016 -34.17731262 32.14817657 -33.54824829 31.50209045 C-31.61130573 29.50294225 -29.71184426 27.47233919 -27.8125 25.4375 C-26.53108931 24.09726887 -25.24725263 22.75935282 -23.9609375 21.42382812 C-22.10074357 19.49246203 -20.24205925 17.56003878 -18.39324951 15.61776733 C-14.75111883 11.80202338 -11.03745241 8.17342018 -6.97509766 4.79907227 C-5.38047767 3.50061434 -5.38047767 3.50061434 -3.88427734 1.85913086 C-2.4375 0.5 -2.4375 0.5 0 0 Z " fill="#B50B0B" transform="translate(174.4375,133.5)"/>
<path d="M0 0 C4.65862758 -0.24955562 9.31327444 -0.42968332 13.97705078 -0.54931641 C15.55846991 -0.59922884 17.13943644 -0.66719447 18.71923828 -0.75439453 C32.54128639 -1.4975154 32.54128639 -1.4975154 37.33300781 2.23535156 C39.82743122 4.70513869 42.00238897 7.11649731 44 10 C44 10.33 44 10.66 44 11 C32.78 11 21.56 11 10 11 C10 23.21 10 35.42 10 48 C-0.84416973 38.70499737 -0.84416973 38.70499737 -1.36230469 33.03588867 C-1.32003247 31.49585385 -1.25535565 29.9563202 -1.171875 28.41796875 C-1.14401917 27.60378983 -1.11616333 26.7896109 -1.08746338 25.95075989 C-0.99442729 23.36183015 -0.87263884 20.77517959 -0.75 18.1875 C-0.6816907 16.42780722 -0.61526333 14.66804031 -0.55078125 12.90820312 C-0.38897648 8.60430503 -0.20138457 4.30222041 0 0 Z " fill="#2E96CD" transform="translate(276,286)"/>
<path d="M0 0 C2.39312132 0.98729193 3.74772108 2.28081567 5.56286621 4.12388611 C6.2267334 4.79290955 6.89060059 5.46193298 7.57458496 6.15122986 C8.59745605 7.20503845 8.59745605 7.20503845 9.64099121 8.28013611 C10.33837402 8.98267517 11.03575684 9.68521423 11.75427246 10.40904236 C16.89099121 15.62617941 16.89099121 15.62617941 16.89099121 16.78013611 C6.00099121 16.78013611 -4.88900879 16.78013611 -16.10900879 16.78013611 C-16.10900879 28.99013611 -16.10900879 41.20013611 -16.10900879 53.78013611 C-19.5720913 52.04859485 -20.99755634 51.11085981 -23.49182129 48.40904236 C-24.10154785 47.75226501 -24.71127441 47.09548767 -25.33947754 46.41880798 C-26.27727051 45.39110291 -26.27727051 45.39110291 -27.23400879 44.34263611 C-27.86693848 43.66136658 -28.49986816 42.98009705 -29.15197754 42.27818298 C-31.70047016 39.51596328 -34.01867493 36.9156369 -36.10900879 33.78013611 C-31.35766708 28.90230688 -26.58705496 24.04396121 -21.80236816 19.19883728 C-20.17608642 17.54736832 -18.55431473 15.89144568 -16.93713379 14.23106384 C-14.61544612 11.84891555 -12.27815412 9.48311231 -9.93713379 7.11997986 C-9.21407043 6.37111008 -8.49100708 5.6222403 -7.74603271 4.85067749 C-7.06562927 4.16989639 -6.38522583 3.4891153 -5.6842041 2.78770447 C-4.79151825 1.87836403 -4.79151825 1.87836403 -3.88079834 0.95065308 C-2.10900879 -0.21986389 -2.10900879 -0.21986389 0 0 Z " fill="#FDFEFE" transform="translate(292.1090087890625,269.21986389160156)"/>
<path d="M0 0 C4.89007061 4.05771816 9.38223735 8.35237073 13.84375 12.875 C16.44087269 15.43448323 19.14721491 17.7324016 22 20 C19.03 23.465 19.03 23.465 16 27 C13.69 25.35 11.38 23.7 9 22 C9 28.93 9 35.86 9 43 C10.32 41.68 11.64 40.36 13 39 C15.88437779 40.29299694 17.87219421 41.65941363 20 44 C18.51346494 47.46629835 16.54277649 49.69022036 13.8671875 52.328125 C13.06152344 53.12734375 12.25585938 53.9265625 11.42578125 54.75 C10.58402344 55.575 9.74226562 56.4 8.875 57.25 C8.02550781 58.09046875 7.17601562 58.9309375 6.30078125 59.796875 C4.20495077 61.86915683 2.10459287 63.93662393 0 66 C-2.46800047 64.84826645 -4.04783565 63.95216435 -6 62 C-5.49178327 57.49589372 -2.44032932 54.88403909 0.5625 51.75 C1.34270508 50.91855469 1.34270508 50.91855469 2.13867188 50.0703125 C3.41930985 48.70743172 4.7088049 47.35288317 6 46 C3.14159258 42.59152105 0.35100521 39.32113243 -2.9375 36.3125 C-5 34 -5 34 -4.9453125 32.15234375 C-3.58744669 29.06067408 -1.48235834 27.44051097 1.0625 25.25 C1.98160156 24.45078125 2.90070313 23.6515625 3.84765625 22.828125 C4.55792969 22.22484375 5.26820313 21.6215625 6 21 C4.41332422 17.09714233 1.86649519 14.66479018 -1.125 11.75 C-2.03507813 10.85796875 -2.94515625 9.9659375 -3.8828125 9.046875 C-4.58148438 8.37140625 -5.28015625 7.6959375 -6 7 C-4.02 4.69 -2.04 2.38 0 0 Z " fill="#940505" transform="translate(161,234)"/>
<path d="M0 0 C0 11.55 0 23.1 0 35 C11.88 35 23.76 35 36 35 C27.46488626 44.9576327 27.46488626 44.9576327 23.26293945 45.34057617 C21.71297222 45.34010191 20.16295381 45.3231949 18.61328125 45.29296875 C17.79627243 45.28872391 16.97926361 45.28447906 16.13749695 45.28010559 C13.52882893 45.26331691 10.92093438 45.22566519 8.3125 45.1875 C6.54363095 45.17245337 4.77474979 45.15876492 3.00585938 45.14648438 C-1.32972496 45.11341286 -5.66473136 45.0616299 -10 45 C-10.22412857 40.03813826 -10.38652741 35.079278 -10.49438477 30.11352539 C-10.53937863 28.42843257 -10.6006011 26.74368586 -10.67895508 25.05981445 C-11.31308609 11.07163035 -11.31308609 11.07163035 -7.99169922 5.83154297 C-2.22415123 0 -2.22415123 0 0 0 Z " fill="#B20202" transform="translate(287,200)"/>
<path d="M0 0 C9.9576327 8.53511374 9.9576327 8.53511374 10.34057617 12.73706055 C10.34010191 14.28702778 10.3231949 15.83704619 10.29296875 17.38671875 C10.28872391 18.20372757 10.28447906 19.02073639 10.28010559 19.86250305 C10.26331691 22.47117107 10.22566519 25.07906562 10.1875 27.6875 C10.17245337 29.45636905 10.15876492 31.22525021 10.14648438 32.99414062 C10.11341286 37.32972496 10.0616299 41.66473136 10 46 C5.03813826 46.22412857 0.079278 46.38652741 -4.88647461 46.49438477 C-6.57156743 46.53937863 -8.25631414 46.6006011 -9.94018555 46.67895508 C-23.92836965 47.31308609 -23.92836965 47.31308609 -29.16845703 43.99169922 C-31.41408068 41.7707189 -33.29344049 39.65369845 -35 37 C-35 36.67 -35 36.34 -35 36 C-23.45 36 -11.9 36 0 36 C0 24.12 0 12.24 0 0 Z " fill="#B20202" transform="translate(223,200)"/>
<path d="M0 0 C8.08406592 6.76647509 15.48682064 14.19069308 22.96386719 21.61376953 C24.66365322 23.29686533 26.36880398 24.97455936 28.07910156 26.64697266 C30.55440596 29.06784875 33.01316297 31.50445849 35.46875 33.9453125 C36.23940796 34.69330109 37.01006592 35.44128967 37.80407715 36.21194458 C38.50230591 36.91302338 39.20053467 37.61410217 39.91992188 38.33642578 C40.85088684 39.25526047 40.85088684 39.25526047 41.80065918 40.19265747 C43 42 43 42 43.06750488 43.91647339 C42 46 42 46 36 51 C21.81 36.81 7.62 22.62 -7 8 C-1 1 -1 1 0 0 Z " fill="#0197B2" transform="translate(298,260)"/>
<path d="M0 0 C5.55439924 4.62491379 10.68525669 9.55360964 15.77734375 14.6796875 C16.58869278 15.49245148 17.40004181 16.30521545 18.23597717 17.14260864 C20.8055259 19.71771738 23.37155968 22.2962962 25.9375 24.875 C27.68791929 26.63043946 29.438568 28.38565017 31.18945312 30.140625 C35.46229302 34.42444082 39.73225899 38.71110472 44 43 C43.07347299 44.17539996 42.13336613 45.34010577 41.1875 46.5 C40.66542969 47.1496875 40.14335937 47.799375 39.60546875 48.46875 C38 50 38 50 35 50 C33.07598877 48.47039795 33.07598877 48.47039795 30.87988281 46.29980469 C30.05603088 45.49186462 29.23217896 44.68392456 28.38336182 43.85150146 C27.49888367 42.96722473 26.61440552 42.082948 25.703125 41.171875 C24.34087799 39.82104828 24.34087799 39.82104828 22.95111084 38.44293213 C21.0293941 36.53467045 19.11373117 34.62056116 17.20166016 32.70263672 C14.74792745 30.24300293 12.27643329 27.80211703 9.79964066 25.3657341 C7.4435478 23.04166929 5.10570645 20.69956069 2.765625 18.359375 C1.87304993 17.48319519 0.98047485 16.60701538 0.06085205 15.70428467 C-0.75039124 14.88373596 -1.56163452 14.06318726 -2.39746094 13.21777344 C-3.11899353 12.49829529 -3.84052612 11.77881714 -4.58392334 11.03753662 C-6 9 -6 9 -5.88531494 6.90826416 C-4.53619976 4.00029545 -2.33021202 2.15096494 0 0 Z " fill="#930707" transform="translate(175,224)"/>
<path d="M0 0 C2.31 1.98 4.62 3.96 7 6 C6.00161315 9.99354741 5.60412785 10.76778235 2.85717773 13.48339844 C1.86626381 14.47397247 1.86626381 14.47397247 0.85533142 15.48455811 C0.13865799 16.18574768 -0.57801544 16.88693726 -1.31640625 17.609375 C-2.04746078 18.33618469 -2.77851532 19.06299438 -3.53172302 19.81182861 C-5.86837157 22.13168401 -8.21523484 24.440892 -10.5625 26.75 C-12.14847036 28.32092443 -13.73376543 29.89253094 -15.31835938 31.46484375 C-19.20443822 35.31784484 -23.09895543 39.16215519 -27 43 C-30.32759923 41.44805246 -32.48580485 39.69378051 -35 37 C-33.63886987 33.95418514 -32.10669904 31.86160974 -29.74365234 29.51660156 C-29.08311859 28.85621887 -28.42258484 28.19583618 -27.74203491 27.51544189 C-27.03052277 26.81425232 -26.31901062 26.11306274 -25.5859375 25.390625 C-24.49147812 24.30041046 -24.49147812 24.30041046 -23.37490845 23.18817139 C-21.0462612 20.87070802 -18.71075174 18.5603005 -16.375 16.25 C-14.79381347 14.67884556 -13.21307875 13.10723629 -11.6328125 11.53515625 C-7.76042882 7.68480922 -3.88187666 3.84077518 0 0 Z " fill="#930606" transform="translate(334,224)"/>
<path d="M0 0 C3.23475448 1.61737724 4.70572021 2.47629223 7 5 C5.46356148 8.68069887 3.21849055 10.98775204 0.375 13.75 C-0.44226563 14.54921875 -1.25953125 15.3484375 -2.1015625 16.171875 C-2.72804688 16.77515625 -3.35453125 17.3784375 -4 18 C-2.46356148 21.68069887 -0.21849055 23.98775204 2.625 26.75 C3.85089844 27.94882812 3.85089844 27.94882812 5.1015625 29.171875 C5.72804688 29.77515625 6.35453125 30.3784375 7 31 C5.46781315 34.63061667 3.2816856 36.9863773 0.5 39.75 C-0.2940625 40.54921875 -1.088125 41.3484375 -1.90625 42.171875 C-4 44 -4 44 -6 44 C-6.33 36.41 -6.66 28.82 -7 21 C-9.31 22.98 -11.62 24.96 -14 27 C-15.98 24.69 -17.96 22.38 -20 20 C-13.4 13.4 -6.8 6.8 0 0 Z " fill="#0699B4" transform="translate(348,235)"/>
<path d="M0 0 C3.23475448 1.61737724 4.70572021 2.47629223 7 5 C5.49650623 8.66786393 3.36271208 10.68910393 0.375 13.25 C-0.85089844 14.30960937 -0.85089844 14.30960937 -2.1015625 15.390625 C-3.04128906 16.18726563 -3.04128906 16.18726563 -4 17 C-3.52590352 21.31730413 -0.96603297 23.33647461 2.0625 26.25 C2.98160156 27.14203125 3.90070313 28.0340625 4.84765625 28.953125 C5.91306641 29.96632813 5.91306641 29.96632813 7 31 C5.02 33.31 3.04 35.62 1 38 C-3.46072399 35.769638 -6.15457609 33.17729012 -9.625 29.6875 C-10.21023437 29.11837891 -10.79546875 28.54925781 -11.3984375 27.96289062 C-11.96046875 27.40150391 -12.5225 26.84011719 -13.1015625 26.26171875 C-13.86460693 25.50314575 -13.86460693 25.50314575 -14.64306641 24.72924805 C-16 23 -16 23 -18 18 C-12.06 12.06 -6.12 6.12 0 0 Z " fill="#FCF7F7" transform="translate(161,248)"/>
<path d="M0 0 C3.32759923 1.55194754 5.48580485 3.30621949 8 6 C5.55171679 11.44618102 2.01412915 15.73705374 -3 19 C-7.7673455 19.74850841 -12.21831547 19.550948 -17 19 C-17 22.63 -17 26.26 -17 30 C-16.34 30.33 -15.68 30.66 -15 31 C-17.64 33.64 -20.28 36.28 -23 39 C-23.495 37.515 -23.495 37.515 -24 36 C-27.3 36 -30.6 36 -34 36 C-32.33037306 32.66074612 -31.35708077 31.11017463 -28.83544922 28.60839844 C-27.87467972 27.64785553 -27.87467972 27.64785553 -26.89450073 26.66790771 C-26.20486237 25.98859192 -25.515224 25.30927612 -24.8046875 24.609375 C-24.09724396 23.90476135 -23.38980042 23.20014771 -22.66091919 22.47418213 C-20.40360138 20.2280461 -18.13942367 17.98896991 -15.875 15.75 C-14.34199047 14.22702283 -12.80943285 12.70359061 -11.27734375 11.1796875 C-7.52345427 7.44783185 -3.76391086 3.72174649 0 0 Z " fill="#0297B2" transform="translate(203,268)"/>
<path d="M0 0 C3.98638671 0.53406676 5.63653188 2.38180725 8.30078125 5.2890625 C9.11353516 6.14757812 9.92628906 7.00609375 10.76367188 7.890625 C12.46136539 9.71190539 14.14893613 11.54267507 15.82617188 13.3828125 C19.8229377 17.9896326 19.8229377 17.9896326 25.16552734 20.36230469 C27.30979678 20.12798506 27.30979678 20.12798506 30 19 C30.99 20.32 31.98 21.64 33 23 C31.35 23.33 29.7 23.66 28 24 C29.32 24 30.64 24 32 24 C34.125 24.3125 34.125 24.3125 36 25 C36.66 25.99 37.32 26.98 38 28 C37.01 28.495 37.01 28.495 36 29 C36.78375 29.103125 37.5675 29.20625 38.375 29.3125 C41 30 41 30 43 33 C40.03 33.495 40.03 33.495 37 34 C39.92122622 34.04975186 39.92122622 34.04975186 42.5 33.75 C45 34 45 34 46.8125 36 C47.204375 36.66 47.59625 37.32 48 38 C45.36 38.33 42.72 38.66 40 39 C39.67 41.64 39.34 44.28 39 47 C37.68 46.34 36.36 45.68 35 45 C35 42.69 35 40.38 35 38 C34.34 38.99 33.68 39.98 33 41 C32.01 40.67 31.02 40.34 30 40 C30 38.02 30 36.04 30 34 C29.67 34.99 29.34 35.98 29 37 C27.68 36.34 26.36 35.68 25 35 C25 33.02 25 31.04 25 29 C24.67 29.99 24.34 30.98 24 32 C22.68 31.34 21.36 30.68 20 30 C20.18304688 28.7109375 20.36609375 27.421875 20.5546875 26.09375 C20.55289808 21.5271458 19.22100994 19.52373481 16.1328125 16.21875 C14.48608685 14.62224551 12.81583215 13.04971565 11.125 11.5 C10.28324219 10.69046875 9.44148438 9.8809375 8.57421875 9.046875 C4.61688527 5.07303786 4.61688527 5.07303786 0 2 C0 1.34 0 0.68 0 0 Z " fill="#0F9DB6" transform="translate(328,358)"/>
<path d="M0 0 C0 8.91 0 17.82 0 27 C-8.58 27 -17.16 27 -26 27 C-24.04484271 23.08968543 -21.85908026 20.58384507 -18.80859375 17.578125 C-18.30328629 17.07327576 -17.79797882 16.56842651 -17.27735901 16.04827881 C-16.21307011 14.98700128 -15.14636151 13.92814545 -14.07739258 12.87158203 C-12.4344325 11.24696675 -10.79970383 9.61440222 -9.16601562 7.98046875 C-8.13068068 6.95004601 -7.0948893 5.92008165 -6.05859375 4.890625 C-5.56693222 4.40007629 -5.07527069 3.90952759 -4.56871033 3.40411377 C-1.1160725 0 -1.1160725 0 0 0 Z " fill="#149FB8" transform="translate(323,309)"/>
<path d="M0 0 C3.50897802 2.87098202 6.80940813 5.74481994 9.85546875 9.10546875 C10.36303711 9.65235352 10.87060547 10.19923828 11.39355469 10.76269531 C12.41000312 11.86529434 13.40757099 12.98565165 14.38378906 14.12402344 C16.44589271 16.33272869 18.05809054 17.94699764 21.16064453 18.12158203 C23.63135124 17.85659937 23.63135124 17.85659937 27 17 C27.66 18.32 28.32 19.64 29 21 C28.01 21.66 27.02 22.32 26 23 C27.65 22.67 29.3 22.34 31 22 C32.485 23.98 32.485 23.98 34 26 C32.35 26.33 30.7 26.66 29 27 C29 27.66 29 28.32 29 29 C31.31 28.34 33.62 27.68 36 27 C36.99 28.32 37.98 29.64 39 31 C38.01 31.495 38.01 31.495 37 32 C38.175625 32.1546875 38.175625 32.1546875 39.375 32.3125 C42 33 42 33 44 36 C42.88625 36.185625 41.7725 36.37125 40.625 36.5625 C39.42875 37.036875 38.2325 37.51125 37 38 C35.45913678 41.51400668 35.45913678 41.51400668 35 45 C33.68 44.34 32.36 43.68 31 43 C31 41.02 31 39.04 31 37 C30.67 37.99 30.34 38.98 30 40 C28.68 39.34 27.36 38.68 26 38 C26.875 32.25 26.875 32.25 28 30 C27.34 30 26.68 30 26 30 C25.67 31.65 25.34 33.3 25 35 C23.68 34.34 22.36 33.68 21 33 C21.33 30.69 21.66 28.38 22 26 C21.01 28.475 21.01 28.475 20 31 C18.68 30.01 17.36 29.02 16 28 C16.33902344 26.86175781 16.67804688 25.72351563 17.02734375 24.55078125 C17.40761147 21.50662749 17.24487064 20.35737664 15.48876953 17.79443359 C13.26152214 15.48368375 10.95820054 13.32308514 8.5625 11.1875 C6.95361572 9.70834394 5.35042965 8.22295805 3.75390625 6.73046875 C3.03533447 6.08489014 2.3167627 5.43931152 1.57641602 4.77416992 C0 3 0 3 0 0 Z " fill="#0C9CB5" transform="translate(350,338)"/>
<path d="M0 0 C8.58 0 17.16 0 26 0 C26 8.58 26 17.16 26 26 C25.34 26 24.68 26 24 26 C22.58764648 24.54443359 22.58764648 24.54443359 20.93359375 22.5234375 C16.27582547 17.0432839 11.00875386 12.31050186 5.70117188 7.47265625 C4.96576172 6.79332031 4.23035156 6.11398438 3.47265625 5.4140625 C2.80500244 4.8051416 2.13734863 4.1962207 1.44946289 3.56884766 C0 2 0 2 0 0 Z " fill="#970E0E" transform="translate(296,199)"/>
<path d="M0 0 C8.58 0 17.16 0 26 0 C26 0.66 26 1.32 26 2 C24.56420898 3.41235352 24.56420898 3.41235352 22.55859375 5.06640625 C17.79903687 9.11260658 13.43901425 13.48467338 9.0625 17.9375 C7.55565907 19.46968728 6.04666913 20.99976519 4.53515625 22.52734375 C3.879104 23.19499756 3.22305176 23.86265137 2.54711914 24.55053711 C1 26 1 26 0 26 C0 17.42 0 8.84 0 0 Z " fill="#950808" transform="translate(187,199)"/>
<path d="M0 0 C4.12805463 3.53833254 8.02586805 6.89872087 11.83984375 10.70703125 C12.67451172 11.54041016 13.50917969 12.37378906 14.36914062 13.23242188 C15.21669922 14.08384766 16.06425781 14.93527344 16.9375 15.8125 C17.81212891 16.68326172 18.68675781 17.55402344 19.58789062 18.45117188 C20.41353516 19.27810547 21.23917969 20.10503906 22.08984375 20.95703125 C22.84128662 21.70960205 23.59272949 22.46217285 24.36694336 23.23754883 C26 25 26 25 26 26 C17.42 26 8.84 26 0 26 C0 17.42 0 8.84 0 0 Z " fill="#0799B4" transform="translate(187,309)"/>
<path d="M0 0 C3.65564739 1.53436576 5.98698623 3.74982422 8.75 6.5625 C9.54921875 7.36816406 10.3484375 8.17382812 11.171875 9.00390625 C13 11 13 11 13 12 C8.71 12 4.42 12 0 12 C0 17.28 0 22.56 0 28 C-2.35543083 26.0214381 -4.68703405 24.02730083 -7 22 C-7.60585937 21.4740625 -8.21171875 20.948125 -8.8359375 20.40625 C-10.5 18.875 -10.5 18.875 -13 16 C-12.72127645 12.80271551 -11.53844357 11.17407167 -9.27734375 8.984375 C-8.73916016 8.45585937 -8.20097656 7.92734375 -7.64648438 7.3828125 C-7.08251953 6.84398437 -6.51855469 6.30515625 -5.9375 5.75 C-5.36966797 5.19570312 -4.80183594 4.64140625 -4.21679688 4.0703125 C-2.81787531 2.70665786 -1.40980886 1.35239583 0 0 Z " fill="#B60D0D" transform="translate(162,159)"/>
<path d="M0 0 C4.15126955 1.6187965 6.854184 4.66613372 9.875 7.8125 C13.74046766 11.8114301 17.6698057 15.50352968 22 19 C21.45773019 22.79588866 19.79872437 24.47211993 17 27 C13.53370165 25.51346494 11.30977964 23.54277649 8.671875 20.8671875 C7.87265625 20.06152344 7.0734375 19.25585938 6.25 18.42578125 C5.0125 17.16314453 5.0125 17.16314453 3.75 15.875 C2.90953125 15.02550781 2.0690625 14.17601562 1.203125 13.30078125 C-0.86915683 11.20495077 -2.93662393 9.10459287 -5 7 C-3.35 4.69 -1.7 2.38 0 0 Z " fill="#0598B3" transform="translate(333,273)"/>
<path d="M0 0 C2 1.625 2 1.625 3 4 C3.24895157 7.11189466 3.40457737 9.19084526 2 12 C1.92966231 13.87379605 1.9156978 15.75001102 1.9375 17.625 C1.958125 19.39875 1.97875 21.1725 2 23 C-1.96 23 -5.92 23 -10 23 C-9.96744792 20.16796875 -9.93489583 17.3359375 -9.90234375 14.50390625 C-9.71387324 12.05978933 -9.71387324 12.05978933 -11 11 C-11.45714286 3.91428571 -11.45714286 3.91428571 -10 1 C-6.73916234 -0.63041883 -3.55761554 -0.65964122 0 0 Z " fill="#F6F7FA" transform="translate(259,256)"/>
<path d="M0 0 C2.46958077 0.98132117 3.78845865 2.17220612 5.63671875 4.07421875 C6.21550781 4.656875 6.79429687 5.23953125 7.390625 5.83984375 C9.07421875 7.82421875 9.07421875 7.82421875 12.07421875 12.82421875 C3.82421875 12.82421875 -4.42578125 12.82421875 -12.92578125 12.82421875 C-3.09569107 -0.28256815 -3.09569107 -0.28256815 0 0 Z " fill="#970C0C" transform="translate(254.92578125,169.17578125)"/>
<path d="M0 0 C8.25 0 16.5 0 25 0 C21.04354855 4.61586002 17.30058488 8.80181 13 13 C9.14073288 11.45098223 6.97240841 9.02912393 4.25 5.9375 C3.45078125 5.03902344 2.6515625 4.14054687 1.828125 3.21484375 C0 1 0 1 0 0 Z " fill="#0498B3" transform="translate(242,352)"/>
<path d="M0 0 C1.17825358 0.90172468 2.34231577 1.82201502 3.5 2.75 C4.1496875 3.26046875 4.799375 3.7709375 5.46875 4.296875 C7 6 7 6 7 10 C4.89768404 12.3382902 2.48516737 14.04736849 0 16 C-2.31 13.69 -4.62 11.38 -7 9 C-5.04783565 5.09567131 -3.12613393 2.96160056 0 0 Z " fill="#970D0D" transform="translate(185,259)"/>
<path d="M0 0 C1.17825358 0.90172468 2.34231577 1.82201502 3.5 2.75 C4.1496875 3.26046875 4.799375 3.7709375 5.46875 4.296875 C7 6 7 6 7 10 C4.89768404 12.3382902 2.48516737 14.04736849 0 16 C-2.31 13.69 -4.62 11.38 -7 9 C-5.04783565 5.09567131 -3.12613393 2.96160056 0 0 Z " fill="#0A9BB5" transform="translate(324,259)"/>
<path d="M0 0 C1.17825358 0.90172468 2.34231577 1.82201502 3.5 2.75 C4.1496875 3.26046875 4.799375 3.7709375 5.46875 4.296875 C7 6 7 6 7 10 C4.89768404 12.3382902 2.48516737 14.04736849 0 16 C-2.31 13.69 -4.62 11.38 -7 9 C-5.04783565 5.09567131 -3.12613393 2.96160056 0 0 Z " fill="#970D0D" transform="translate(254,183)"/>
<path d="M0 0 C1.17539996 0.92652701 2.34010577 1.86663387 3.5 2.8125 C4.1496875 3.33457031 4.799375 3.85664063 5.46875 4.39453125 C7 6 7 6 7 9 C5.6875 10.60546875 5.6875 10.60546875 4 12.1875 C3.443125 12.71730469 2.88625 13.24710937 2.3125 13.79296875 C1.879375 14.19128906 1.44625 14.58960938 1 15 C-2.35915158 13.56036361 -4.71624938 11.87583411 -7 9 C-7.125 7.0625 -7.125 7.0625 -6 5 C-4.09222993 3.16580784 -2.10890296 1.61532992 0 0 Z " fill="#079AB4" transform="translate(254,335)"/>
<path d="M0 0 C0.66 0.66 1.32 1.32 2 2 C1.43181818 7.56818182 1.43181818 7.56818182 0 9 C-2.9375 9.1875 -2.9375 9.1875 -6 9 C-6.66 8.34 -7.32 7.68 -8 7 C-7.75 3.4375 -7.75 3.4375 -7 0 C-4.29393021 -1.35303489 -2.8671629 -0.7884698 0 0 Z " fill="#FAF0F0" transform="translate(111,123)"/>
<path d="M0 0 C2 2 2 2 2.22705078 4.24658203 C2.21134033 5.61339111 2.21134033 5.61339111 2.1953125 7.0078125 C2.18564453 8.48701172 2.18564453 8.48701172 2.17578125 9.99609375 C2.15902344 11.02863281 2.14226562 12.06117188 2.125 13.125 C2.11597656 14.16527344 2.10695312 15.20554687 2.09765625 16.27734375 C2.07403747 18.85179092 2.04110149 21.42578212 2 24 C3.32 22.68 4.64 21.36 6 20 C6.66 20.33 7.32 20.66 8 21 C3.71 25.29 -0.58 29.58 -5 34 C-5 33.01 -5 32.02 -5 31 C-4.34386719 30.36449219 -3.68773437 29.72898437 -3.01171875 29.07421875 C0.14382378 24.25205958 -0.61706066 19.43386551 -0.8125 13.8125 C-0.8646381 11.63160151 -0.9130095 9.45060866 -0.95703125 7.26953125 C-0.98772705 6.30635986 -1.01842285 5.34318848 -1.05004883 4.35083008 C-1 2 -1 2 0 0 Z M-10 10 C-9.34 10.33 -8.68 10.66 -8 11 C-9.32 12.32 -10.64 13.64 -12 15 C-11.125 11.125 -11.125 11.125 -10 10 Z " fill="#9A1313" transform="translate(168,253)"/>
</svg>
